<svg viewBox="0 0 48 48" xmlns="http://www.w3.org/2000/svg" xml:space="preserve" style="fill-rule:evenodd;clip-rule:evenodd;stroke-linejoin:round;stroke-miterlimit:2"><path style="fill:none" d="M0 0h48v48H0z"/><path d="M.173-.253V-.4l.235-.3h.124l-.359.447zM.084 0v-.7H.19V0H.084zm.37 0L.253-.378l.072-.09L.578 0H.454z" style="fill:#d82f22;fill-rule:nonzero" transform="translate(0 9.343) scale(12.9415)"/><path d="m.03 0 .229-.7h.098l.23.7H.473L.326-.483A.142.142 0 0 1 .32-.504a.23.23 0 0 1-.007-.028L.308-.558l-.006.026a1.304 1.304 0 0 1-.012.049L.144 0H.03zm.137-.161.029-.096H.42l.029.096H.167z" style="fill:#d82f22;fill-rule:nonzero" transform="translate(20.01 9.343) scale(12.9415)"/><path d="M.254 0v-.598H.052V-.7h.512v.102H.361V0H.254z" style="fill:#d82f22;fill-rule:nonzero" transform="translate(40.03 9.343) scale(12.9415)"/><path d="M.084 0v-.7H.19v.288h.236V-.7h.107V0H.426v-.312H.19V0H.084z" style="fill:#d82f22;fill-rule:nonzero" transform="translate(0 28.343) scale(12.9415)"/><path d="m.03 0 .229-.7h.098l.23.7H.473L.326-.483A.142.142 0 0 1 .32-.504a.23.23 0 0 1-.007-.028L.308-.558l-.006.026a1.304 1.304 0 0 1-.012.049L.144 0H.03zm.137-.161.029-.096H.42l.029.096H.167z" style="fill:#d82f22;fill-rule:nonzero" transform="translate(20.01 28.343) scale(12.9415)"/><path d="M.084 0v-.7h.231a.26.26 0 0 1 .135.03.162.162 0 0 1 .07.077.242.242 0 0 1 .009.174.202.202 0 0 1-.104.114.266.266 0 0 1-.095.021H.19V0H.084zm.337 0L.275-.298l.113-.01L.539 0H.421zM.19-.384h.127c.03 0 .053-.005.07-.015A.092.092 0 0 0 .422-.44a.127.127 0 0 0 .001-.101.089.089 0 0 0-.035-.042A.12.12 0 0 0 .317-.6H.19v.216z" style="fill:#d82f22;fill-rule:nonzero" transform="translate(40.03 28.343) scale(12.9415)"/><path d="M.254 0v-.598H.052V-.7h.512v.102H.361V0H.254z" style="fill:#d82f22;fill-rule:nonzero" transform="translate(0 47.343) scale(12.9415)"/><path d="M.308.012A.217.217 0 0 1 .112-.1a.412.412 0 0 1-.045-.116.655.655 0 0 1 0-.268A.412.412 0 0 1 .112-.6a.217.217 0 0 1 .196-.112.217.217 0 0 1 .197.112c.02.034.035.073.044.116a.592.592 0 0 1 0 .268.383.383 0 0 1-.044.116.217.217 0 0 1-.197.112zm0-.101a.094.094 0 0 0 .066-.022.175.175 0 0 0 .045-.06.344.344 0 0 0 .025-.084.6.6 0 0 0 0-.194.323.323 0 0 0-.025-.083.148.148 0 0 0-.045-.058.105.105 0 0 0-.066-.022.1.1 0 0 0-.066.023.164.164 0 0 0-.045.06.5.5 0 0 0-.033.179.519.519 0 0 0 .033.182.148.148 0 0 0 .045.058c.018.014.04.022.066.021z" style="fill:#d82f22;fill-rule:nonzero" transform="translate(20.01 47.343) scale(12.9415)"/><path d="M.321.012a.232.232 0 0 1-.12-.03A.241.241 0 0 1 .118-.1.38.38 0 0 1 .07-.217a.532.532 0 0 1 .049-.381.266.266 0 0 1 .084-.083.216.216 0 0 1 .118-.031c.039 0 .071.006.097.019.026.013.048.03.066.05a.471.471 0 0 1 .045.065l-.094.054A.284.284 0 0 0 .39-.585a.093.093 0 0 0-.069-.027.113.113 0 0 0-.073.024.17.17 0 0 0-.048.063.368.368 0 0 0-.027.085.567.567 0 0 0 .001.187.346.346 0 0 0 .029.084.156.156 0 0 0 .048.059c.02.014.043.022.07.021a.1.1 0 0 0 .087-.039.167.167 0 0 0 .03-.102v-.021H.314v-.1h.234v.092c0 .059-.01.108-.03.149a.214.214 0 0 1-.197.122z" style="fill:#d82f22;fill-rule:nonzero" transform="translate(40.03 47.343) scale(12.9415)"/></svg>